<mxfile host="app.diagrams.net" modified="2022-03-13T19:51:23.918Z" agent="5.0 (Windows)" etag="jvm23YUJPlcqvVlxGrHo" version="17.1.2" type="github">
  <diagram id="XANg_6TM7YshqjZFgcF8" name="Page-1">
    <mxGraphModel dx="1422" dy="780" grid="1" gridSize="10" guides="1" tooltips="1" connect="1" arrows="1" fold="1" page="1" pageScale="1" pageWidth="1100" pageHeight="850" math="0" shadow="0">
      <root>
        <mxCell id="0" />
        <mxCell id="1" parent="0" />
        <mxCell id="bwABOE7Ox9UtYRpD6rb7-27" value="" style="endArrow=none;dashed=1;html=1;dashPattern=1 3;strokeWidth=2;rounded=0;jumpSize=3;" edge="1" parent="1">
          <mxGeometry width="50" height="50" relative="1" as="geometry">
            <mxPoint x="409.5" y="590" as="sourcePoint" />
            <mxPoint x="409.5" y="100" as="targetPoint" />
          </mxGeometry>
        </mxCell>
        <mxCell id="bwABOE7Ox9UtYRpD6rb7-5" style="edgeStyle=orthogonalEdgeStyle;rounded=0;orthogonalLoop=1;jettySize=auto;html=1;exitX=1;exitY=0.5;exitDx=0;exitDy=0;entryX=0;entryY=0.5;entryDx=0;entryDy=0;" edge="1" parent="1" source="bwABOE7Ox9UtYRpD6rb7-3">
          <mxGeometry relative="1" as="geometry">
            <mxPoint x="200" y="380" as="targetPoint" />
          </mxGeometry>
        </mxCell>
        <mxCell id="bwABOE7Ox9UtYRpD6rb7-3" value="Data Sources" style="shape=datastore;whiteSpace=wrap;html=1;" vertex="1" parent="1">
          <mxGeometry x="70" y="350" width="60" height="60" as="geometry" />
        </mxCell>
        <mxCell id="bwABOE7Ox9UtYRpD6rb7-18" style="edgeStyle=orthogonalEdgeStyle;rounded=0;jumpSize=3;orthogonalLoop=1;jettySize=auto;html=1;exitX=0.875;exitY=0.55;exitDx=0;exitDy=0;entryX=0;entryY=0.5;entryDx=0;entryDy=0;strokeWidth=1;exitPerimeter=0;" edge="1" parent="1" source="bwABOE7Ox9UtYRpD6rb7-23" target="bwABOE7Ox9UtYRpD6rb7-17">
          <mxGeometry relative="1" as="geometry">
            <mxPoint x="470" y="380" as="sourcePoint" />
          </mxGeometry>
        </mxCell>
        <mxCell id="bwABOE7Ox9UtYRpD6rb7-24" style="edgeStyle=orthogonalEdgeStyle;rounded=0;jumpSize=3;orthogonalLoop=1;jettySize=auto;html=1;exitX=1;exitY=0.5;exitDx=0;exitDy=0;entryX=0.013;entryY=0.55;entryDx=0;entryDy=0;entryPerimeter=0;strokeWidth=1;" edge="1" parent="1" source="bwABOE7Ox9UtYRpD6rb7-11" target="bwABOE7Ox9UtYRpD6rb7-23">
          <mxGeometry relative="1" as="geometry" />
        </mxCell>
        <mxCell id="bwABOE7Ox9UtYRpD6rb7-11" value="&amp;nbsp;&amp;nbsp; Transforms" style="shape=step;perimeter=stepPerimeter;whiteSpace=wrap;html=1;fixedSize=1;" vertex="1" parent="1">
          <mxGeometry x="180" y="345" width="120" height="70" as="geometry" />
        </mxCell>
        <mxCell id="bwABOE7Ox9UtYRpD6rb7-14" style="edgeStyle=orthogonalEdgeStyle;rounded=0;jumpSize=3;orthogonalLoop=1;jettySize=auto;html=1;exitX=0.5;exitY=0;exitDx=0;exitDy=0;entryX=0.5;entryY=1;entryDx=0;entryDy=0;strokeWidth=1;" edge="1" parent="1" source="bwABOE7Ox9UtYRpD6rb7-12" target="bwABOE7Ox9UtYRpD6rb7-11">
          <mxGeometry relative="1" as="geometry" />
        </mxCell>
        <mxCell id="bwABOE7Ox9UtYRpD6rb7-16" style="edgeStyle=orthogonalEdgeStyle;rounded=0;jumpSize=3;orthogonalLoop=1;jettySize=auto;html=1;exitX=0;exitY=0.5;exitDx=0;exitDy=0;entryX=0.5;entryY=1;entryDx=0;entryDy=0;strokeWidth=1;" edge="1" parent="1" source="bwABOE7Ox9UtYRpD6rb7-12" target="bwABOE7Ox9UtYRpD6rb7-3">
          <mxGeometry relative="1" as="geometry" />
        </mxCell>
        <mxCell id="bwABOE7Ox9UtYRpD6rb7-12" value="Deterministic UIDs" style="rounded=0;whiteSpace=wrap;html=1;" vertex="1" parent="1">
          <mxGeometry x="180" y="460" width="120" height="60" as="geometry" />
        </mxCell>
        <mxCell id="bwABOE7Ox9UtYRpD6rb7-20" style="edgeStyle=orthogonalEdgeStyle;rounded=0;jumpSize=3;orthogonalLoop=1;jettySize=auto;html=1;exitX=1;exitY=0.5;exitDx=0;exitDy=0;entryX=0;entryY=0.5;entryDx=0;entryDy=0;strokeWidth=1;" edge="1" parent="1" source="bwABOE7Ox9UtYRpD6rb7-17" target="bwABOE7Ox9UtYRpD6rb7-19">
          <mxGeometry relative="1" as="geometry" />
        </mxCell>
        <mxCell id="bwABOE7Ox9UtYRpD6rb7-17" value="&amp;nbsp;&amp;nbsp; Transforms" style="shape=step;perimeter=stepPerimeter;whiteSpace=wrap;html=1;fixedSize=1;" vertex="1" parent="1">
          <mxGeometry x="520" y="345" width="120" height="70" as="geometry" />
        </mxCell>
        <mxCell id="bwABOE7Ox9UtYRpD6rb7-26" style="edgeStyle=orthogonalEdgeStyle;rounded=0;jumpSize=3;orthogonalLoop=1;jettySize=auto;html=1;exitX=1;exitY=0.5;exitDx=0;exitDy=0;entryX=0;entryY=0.5;entryDx=0;entryDy=0;entryPerimeter=0;strokeWidth=1;" edge="1" parent="1" source="bwABOE7Ox9UtYRpD6rb7-19" target="bwABOE7Ox9UtYRpD6rb7-25">
          <mxGeometry relative="1" as="geometry" />
        </mxCell>
        <mxCell id="bwABOE7Ox9UtYRpD6rb7-19" value="Renderer" style="shape=parallelogram;perimeter=parallelogramPerimeter;whiteSpace=wrap;html=1;fixedSize=1;" vertex="1" parent="1">
          <mxGeometry x="690" y="350" width="120" height="60" as="geometry" />
        </mxCell>
        <mxCell id="bwABOE7Ox9UtYRpD6rb7-22" style="edgeStyle=orthogonalEdgeStyle;rounded=0;jumpSize=3;orthogonalLoop=1;jettySize=auto;html=1;exitX=0.5;exitY=1;exitDx=0;exitDy=0;entryX=0.583;entryY=-0.017;entryDx=0;entryDy=0;entryPerimeter=0;strokeWidth=1;" edge="1" parent="1" source="bwABOE7Ox9UtYRpD6rb7-21" target="bwABOE7Ox9UtYRpD6rb7-19">
          <mxGeometry relative="1" as="geometry" />
        </mxCell>
        <mxCell id="bwABOE7Ox9UtYRpD6rb7-21" value="Template" style="rounded=0;whiteSpace=wrap;html=1;" vertex="1" parent="1">
          <mxGeometry x="700" y="250" width="120" height="60" as="geometry" />
        </mxCell>
        <mxCell id="bwABOE7Ox9UtYRpD6rb7-23" value="Common Data Model" style="shape=card;whiteSpace=wrap;html=1;" vertex="1" parent="1">
          <mxGeometry x="370" y="325" width="80" height="100" as="geometry" />
        </mxCell>
        <mxCell id="bwABOE7Ox9UtYRpD6rb7-25" value="Document" style="shape=note;whiteSpace=wrap;html=1;backgroundOutline=1;darkOpacity=0.05;" vertex="1" parent="1">
          <mxGeometry x="890" y="330" width="80" height="100" as="geometry" />
        </mxCell>
        <mxCell id="bwABOE7Ox9UtYRpD6rb7-29" value="&lt;font style=&quot;font-size: 23px&quot;&gt;Data&lt;/font&gt;" style="text;html=1;strokeColor=none;fillColor=none;align=center;verticalAlign=middle;whiteSpace=wrap;rounded=0;" vertex="1" parent="1">
          <mxGeometry x="260" y="150" width="110" height="30" as="geometry" />
        </mxCell>
        <mxCell id="bwABOE7Ox9UtYRpD6rb7-30" value="&lt;font style=&quot;font-size: 23px&quot;&gt;Rendering&lt;/font&gt;" style="text;html=1;strokeColor=none;fillColor=none;align=center;verticalAlign=middle;whiteSpace=wrap;rounded=0;" vertex="1" parent="1">
          <mxGeometry x="450" y="150" width="110" height="30" as="geometry" />
        </mxCell>
      </root>
    </mxGraphModel>
  </diagram>
</mxfile>
